<svg xmlns="http://www.w3.org/2000/svg" width="108" height="108" viewBox="0 0 108 108">
    <g fill="none" fill-rule="nonzero">
        <path fill="#CFE7EA" d="M67.147 38.295l-3.175 25.433 3.175 30.491 27.074-5.059V33.236z"/>
        <path fill="#BFDFE3" d="M67.147 38.295l-13.537-5.06-3.175 30.493L53.61 89.16l13.537 5.06z"/>
        <path fill="#CFE7EA" d="M40.074 28.176L36.898 58.67 40.074 84.1l13.536 5.06V33.235z"/>
        <path fill="#BFDFE3" d="M13 33.236V89.16l27.074-5.059V28.177z"/>
        <path fill="#009e7f" d="M67.627 18.807a19.76 19.76 0 0 0-14.017-5.806l-3.175 20.15 3.175 27.707L67.627 46.84c7.741-7.741 7.741-20.292 0-28.034z"/>
        <path fill="#009e7f" d="M53.61 60.858L39.594 46.84c-7.742-7.741-7.742-20.292 0-28.034 7.74-7.74 20.292-7.74 28.033 0 7.741 7.742 7.741 20.293 0 28.034L53.61 60.858z"/>
        <path fill="#19e6bd" d="M39.594 18.807c-7.742 7.742-7.742 20.293 0 28.034L53.61 60.858V13a19.761 19.761 0 0 0-14.016 5.806z"/>
        <path fill="#04c7a1" d="M53.61 23.112l-3.175 9.712 3.175 9.712c5.356 0 9.713-4.356 9.713-9.712 0-5.355-4.357-9.712-9.713-9.712z"/>
        <path fill="#04c7a1" d="M43.898 32.824c0 5.355 4.357 9.712 9.712 9.712V23.112c-5.355 0-9.712 4.357-9.712 9.712z"/>
        <path fill="#5A5A5A" d="M49.694 66.77a3.92 3.92 0 0 0 3.916 3.915v-7.832a3.92 3.92 0 0 0-3.916 3.916z"/>
        <path fill="#444" d="M53.61 62.853v7.832a3.92 3.92 0 0 0 3.917-3.916 3.92 3.92 0 0 0-3.917-3.916z"/>
    </g>
</svg>
