<svg xmlns="http://www.w3.org/2000/svg" width="108" height="108" viewBox="0 0 108 108">
    <g fill="none" fill-rule="nonzero">
        <path fill="#5A5A5A" d="M89.32 71.002H19.026a5.55 5.55 0 0 1-5.55-5.55V19.575a5.55 5.55 0 0 1 5.55-5.55h70.296a5.55 5.55 0 0 1 5.55 5.55v45.877a5.55 5.55 0 0 1-5.55 5.55z"/>
        <path fill="#444" d="M89.32 14.026H53.898v56.977H89.32a5.55 5.55 0 0 0 5.55-5.55V19.576a5.55 5.55 0 0 0-5.55-5.55z"/>
        <path fill="#59595B" d="M9.858 62.863c-2.497 0-4.522 1.012-4.522 2.26v3.618c0 1.249 2.025 2.26 4.522 2.26h44.039v-8.138H9.858z"/>
        <path fill="#444" d="M98.488 62.863H53.896v8.139h44.592c2.498 0 4.522-1.013 4.522-2.261v-3.618c0-1.248-2.024-2.26-4.522-2.26z"/>
        <path fill="#808183" d="M46.034 62.862h16.281v4.44H46.034z"/>
        <path fill="#CFE7EA" d="M17.547 19.331h73.256v40.694H17.547z"/>
        <path fill="#BFDFE3" d="M53.895 19.331h36.903v40.694H53.895z"/>
        <path fill="#5A5A5A" d="M31.028 83.86H13.516A4.317 4.317 0 0 1 9.2 79.542v-35.55a4.316 4.316 0 0 1 4.317-4.315H31.03a4.317 4.317 0 0 1 4.317 4.316l-.001 35.55a4.317 4.317 0 0 1-4.317 4.315z"/>
        <path fill="#444" d="M31.03 39.678H22.2V83.86h8.829a4.316 4.316 0 0 0 4.316-4.315l.001-35.55a4.317 4.317 0 0 0-4.317-4.316z"/>
        <path fill="#CFE7EA" d="M11.679 43.544h21.194v33.113H11.679z"/>
        <path fill="#BFDFE3" d="M22.202 43.544h10.669v33.113H22.202z"/>
        <path fill="#009e7f" d="M50.476 75.254H61.81V54.236H42.575l2.714 16.612c.405 2.47 2.684 4.406 5.187 4.406z"/>
        <path fill="#19e6bd" d="M75.989 75.254l3.445-21.018H61.81v21.018z"/>
        <path fill="#009e7f" d="M45.732 88.378a4.9 4.9 0 0 0 4.895 4.895v-9.79a4.9 4.9 0 0 0-4.895 4.895zM69.37 88.378a4.9 4.9 0 0 0 4.895 4.895v-9.79a4.9 4.9 0 0 0-4.895 4.895z"/>
        <path fill="#009e7f" d="M50.627 83.483v9.79a4.9 4.9 0 0 0 4.895-4.895 4.9 4.9 0 0 0-4.895-4.895zM74.265 83.483v9.79a4.9 4.9 0 0 0 4.895-4.895 4.9 4.9 0 0 0-4.895-4.895zM80.333 48.75L75.54 77.997H47.561v3.657h31.085l4.794-29.247h2.916V48.75z"/>
    </g>
</svg>
